<svg width="35" height="46" viewBox="0 0 35 46" fill="none" xmlns="http://www.w3.org/2000/svg">
  <style>
    path {
      fill: #121212;
    }

    path + path {
      fill: #121212;
      fill-opacity: 0.32;
    }

    @media (prefers-color-scheme: dark) {
      path {
        fill: #D7D6D6;
      }

      path + path {
        fill: white;
        fill-opacity: 0.32;
      }
    }
  </style>
  <path d="M7.26562 8.30859V26.043C7.26562 28.1263 7.65625 29.8581 8.4375 31.2383C9.59635 33.3216 11.5495 34.3633 14.2969 34.3633C17.5911 34.3633 19.8307 33.237 21.0156 30.9844C21.6536 29.7604 21.9727 28.1133 21.9727 26.043V8.30859H25.918V24.4219C25.918 27.9505 25.4427 30.6654 24.4922 32.5664C22.7474 36.0299 19.4531 37.7617 14.6094 37.7617C9.76562 37.7617 6.47786 36.0299 4.74609 32.5664C3.79557 30.6654 3.32031 27.9505 3.32031 24.4219V8.30859H7.26562Z"/>
  <path d="M13.2656 8.30859V26.043C13.2656 28.1263 13.6562 29.8581 14.4375 31.2383C15.5964 33.3216 17.5495 34.3633 20.2969 34.3633C23.5911 34.3633 25.8307 33.237 27.0156 30.9844C27.6536 29.7604 27.9727 28.1133 27.9727 26.043V8.30859H31.918V24.4219C31.918 27.9505 31.4427 30.6654 30.4922 32.5664C28.7474 36.0299 25.4531 37.7617 20.6094 37.7617C15.7656 37.7617 12.4779 36.0299 10.7461 32.5664C9.79557 30.6654 9.32031 27.9505 9.32031 24.4219V8.30859H13.2656Z"/>
</svg>
