
<svg width="48px" height="48px" viewBox="0 0 48 48" version="1.1" xmlns="http://www.w3.org/2000/svg" xmlns:xlink="http://www.w3.org/1999/xlink">
    <g id="style" stroke="none" stroke-width="1" fill="none" fill-rule="evenodd">
        <g id="Artboard" transform="translate(-206.000000, -273.000000)">
            <circle id="Oval" fill="#FFFFFF" cx="230" cy="297" r="24"></circle>
            <g id="github-logo" transform="translate(217.000000, 285.000000)" fill="#AAAAAA" fill-rule="nonzero">
                <path d="M24.2561373,6.38167844 C23.0936413,4.41846266 21.5167896,2.86418199 19.5251673,1.71848582 C17.5332485,0.572731214 15.358667,0 12.9998814,0 C10.6413922,0 8.46609934,0.572906522 6.4745956,1.71848582 C4.48279542,2.86412356 2.90600302,4.41846266 1.74350695,6.38167844 C0.581188746,8.34483579 0,10.4886188 0,12.812969 C0,15.605041 0.826458342,18.1157437 2.47979003,20.3457198 C4.13294386,22.5758712 6.26857388,24.119049 8.88650221,24.9754286 C9.1912365,25.0311765 9.41682286,24.991966 9.56349847,24.8587903 C9.71023336,24.7254394 9.78351188,24.5584293 9.78351188,24.3584613 C9.78351188,24.3250943 9.78060682,24.0249086 9.77497458,23.4575535 C9.76916447,22.8901984 9.76643727,22.3952455 9.76643727,21.9729286 L9.37710069,22.0393119 C9.12886676,22.0841323 8.81571374,22.103124 8.43764166,22.0977479 C8.05974744,22.0925471 7.66744652,22.0535118 7.26127248,21.9809343 C6.85492058,21.9089996 6.47696707,21.7421648 6.12711551,21.4807806 C5.77744182,21.2193964 5.52920788,20.8772536 5.38247299,20.4548782 L5.2132091,20.0709537 C5.10038628,19.8153547 4.92276295,19.5314141 4.68010197,19.220184 C4.437441,18.9086617 4.19205283,18.697474 3.94381889,18.5862703 L3.82530453,18.5026484 C3.74633448,18.4470758 3.67305596,18.3800497 3.60529112,18.3022714 C3.53758557,18.2244931 3.48689533,18.1466563 3.45304255,18.0687027 C3.41913049,17.9906906 3.44723245,17.9267032 3.53764485,17.8765067 C3.62805726,17.8263102 3.79145175,17.8019424 4.02853977,17.8019424 L4.36694896,17.8517883 C4.59265391,17.8963749 4.87183557,18.0295506 5.20484966,18.2521333 C5.5376859,18.4745407 5.8112946,18.763682 6.02573504,19.1194404 C6.28541134,19.5755918 6.59826791,19.9231691 6.96519407,20.1623476 C7.3318238,20.4015262 7.70147715,20.5209109 8.07379842,20.5209109 C8.44611968,20.5209109 8.76769142,20.4930954 9.03863221,20.4377565 C9.30927656,20.3821254 9.56320204,20.2985035 9.80029005,20.1873582 C9.90184838,19.4418318 10.1783621,18.8691005 10.6295942,18.4687555 C9.98645068,18.4021385 9.40822628,18.3018039 8.89462451,18.1683945 C8.38131918,18.0348098 7.85087995,17.8180123 7.30366256,17.5174175 C6.75614873,17.2172318 6.30195236,16.8444685 5.94095488,16.3997706 C5.57989812,15.9548389 5.28358257,15.3707127 5.05242323,14.6479178 C4.82114533,13.9248308 4.70547673,13.0907153 4.70547673,12.1453378 C4.70547673,10.7992646 5.15131366,9.65380214 6.04280965,8.70830769 C5.62519325,7.69631308 5.66461899,6.56183662 6.16120544,5.30499518 C6.48846871,5.20477745 6.97379066,5.27998458 7.61693414,5.53014908 C8.26019619,5.78043046 8.73117073,5.99483214 9.03033205,6.17259444 C9.32949337,6.35029831 9.56919001,6.50088788 9.74977767,6.62301911 C10.7994509,6.33393623 11.8826805,6.18936557 12.9997629,6.18936557 C14.1168452,6.18936557 15.2003119,6.33393623 16.2500445,6.62301911 L16.8932472,6.22279096 C17.3330962,5.95573846 17.8525081,5.7110085 18.4502378,5.48854265 C19.0483233,5.26619368 19.5056619,5.20495276 19.8217792,5.30517049 C20.329393,6.56207037 20.3746289,7.69648839 19.9568939,8.708483 C20.8483306,9.65397745 21.2943454,10.7997321 21.2943454,12.1455131 C21.2943454,13.0908907 21.1782618,13.9276357 20.9473396,14.6562742 C20.716121,15.3850295 20.4172561,15.9685714 20.0506264,16.4081269 C19.6835817,16.8476241 19.2264802,17.2174655 18.6792628,17.5175928 C18.1319269,17.8179538 17.6013098,18.0347514 17.0880045,18.1683361 C16.574462,18.3019208 15.9962376,18.4023138 15.3530941,18.4690477 C15.9396779,18.9693767 16.2330291,19.7591392 16.2330291,20.8379846 L16.2330291,24.3579938 C16.2330291,24.5579618 16.3035805,24.7249134 16.4448017,24.8583228 C16.585845,24.9914985 16.8085856,25.030709 17.1133199,24.9749026 C19.731604,24.11864 21.867234,22.5754037 23.5203285,20.3452523 C25.1732452,18.1152762 26,15.6045735 26,12.8125016 C25.9994071,10.4884435 25.417922,8.34483579 24.2561373,6.38167844 Z" id="Path"></path>
            </g>
        </g>
    </g>
</svg>