
<svg width="25px" height="42px" viewBox="0 0 25 42" version="1.1" xmlns="http://www.w3.org/2000/svg" xmlns:xlink="http://www.w3.org/1999/xlink">
    <g id="Rietvelt" stroke="none" stroke-width="1" fill="none" fill-rule="evenodd">
        <g id="Artboard" transform="translate(-249.000000, -264.000000)" stroke="#FFFFFF">
            <g id="Group" transform="translate(249.000000, 264.000000)">
                <path d="M2.87875126,2.87333049 C3.38072099,11.3566712 6.71405433,17.3566712 12.8787513,20.8733305" id="Path-22"></path>
                <path d="M11.8787513,2.87333049 C12.380721,11.3566712 15.7140543,17.3566712 21.8787513,20.8733305" id="Path-22" transform="translate(16.878751, 11.873330) scale(-1, 1) translate(-16.878751, -11.873330) "></path>
                <path d="M2.87875126,20.8733305 C3.38072099,29.3566712 6.71405433,35.3566712 12.8787513,38.8733305" id="Path-22" transform="translate(7.878751, 29.873330) scale(1, -1) translate(-7.878751, -29.873330) "></path>
                <path d="M11.8787513,20.8733305 C12.380721,29.3566712 15.7140543,35.3566712 21.8787513,38.8733305" id="Path-22" transform="translate(16.878751, 29.873330) scale(-1, -1) translate(-16.878751, -29.873330) "></path>
                <polygon id="Path-23" points="1.87875126 38.8733305 21.8787513 38.8733305 21.8787513 40.8733305 1.87875126 40.8733305"></polygon>
                <polygon id="Path-25" points="0.878751257 0.873330487 0.878751257 2.87333049 23.8787513 2.87333049 23.8787513 0.873330487"></polygon>
                <path d="M7.21400088,10.9842608 L17.8787513,10.9842608 C16.8289231,13.6181915 15.1717028,16.1968951 12.9070901,18.7203716 C12.3645089,19.3249744 11.5997479,18.0067657 10.7646988,17.0421017 C9.41013252,15.477282 7.91496628,13.4805417 7.21400088,11.9697306 C6.76700138,11.0062996 6.76700138,10.6778097 7.21400088,10.9842608 Z" id="Path-24" fill-opacity="0.56" fill="#D8D8D8"></path>
                <path d="M4.09929685,30.0294428 L21,30.0294428 C20.3283497,33.0595548 19.3841399,35.1292698 18.1673705,36.2385876 C17.1099311,37.2026457 14.7379206,37.8442195 13.1212812,37.9587749 C11.5046419,38.0733303 8.58118286,38.0733303 6.44450641,36.2385876 C4.50975704,34.5772376 4.29789055,32.2539998 4.09929685,31.0395262 C3.96690105,30.2298772 3.96690105,29.8931827 4.09929685,30.0294428 Z" id="Path-24" fill-opacity="0.56" fill="#D8D8D8" transform="translate(12.500000, 34.000000) scale(1, -1) translate(-12.500000, -34.000000) "></path>
            </g>
        </g>
    </g>
</svg>