
<svg width="48px" height="48px" viewBox="0 0 48 48" version="1.1" xmlns="http://www.w3.org/2000/svg" xmlns:xlink="http://www.w3.org/1999/xlink">
    <g id="style" stroke="none" stroke-width="1" fill="none" fill-rule="evenodd">
        <g id="Artboard" transform="translate(-321.000000, -273.000000)">
            <circle id="Oval" fill="#FFFFFF" cx="345" cy="297" r="24"></circle>
            <path d="M357,298.036088 L357,307 L351.759608,307 L351.759608,298.636437 C351.759608,296.535441 351.001641,295.101594 349.104793,295.101594 C347.65679,295.101594 346.795082,296.067902 346.415985,297.002642 C346.277739,297.336808 346.242155,297.801924 346.242155,298.269688 L346.242155,307 L341,307 C341,307 341.070601,292.834869 341,291.367256 L346.241643,291.367256 L346.241643,293.583135 C346.231013,293.599708 346.2172,293.617577 346.207195,293.633643 L346.241643,293.633643 L346.241643,293.583135 C346.938046,292.519474 348.18175,291 350.965545,291 C354.414479,291 357,293.234312 357,298.036088 Z M336.018278,284 C334.193533,284 333,285.295404 333,286.998904 C333,288.665282 334.159003,290 335.947481,290 L335.983111,290 C337.843195,290 339,288.665533 339,286.998904 C338.964949,285.295404 337.843195,284 336.018278,284 Z M334,307 L339,307 L339,291 L334,291 L334,307 Z" id="LinkedIn" fill="#000000" fill-rule="nonzero"></path>
        </g>
    </g>
</svg>