
<svg width="48px" height="48px" viewBox="0 0 48 48" version="1.1" xmlns="http://www.w3.org/2000/svg" xmlns:xlink="http://www.w3.org/1999/xlink">
    <g id="style" stroke="none" stroke-width="1" fill="none" fill-rule="evenodd">
        <g id="Artboard" transform="translate(-321.000000, -209.000000)">
            <circle id="Oval" fill="#AAAAAA" cx="345" cy="233" r="24"></circle>
            <path d="M357,234.036088 L357,243 L351.759608,243 L351.759608,234.636437 C351.759608,232.535441 351.001641,231.101594 349.104793,231.101594 C347.65679,231.101594 346.795082,232.067902 346.415985,233.002642 C346.277739,233.336808 346.242155,233.801924 346.242155,234.269688 L346.242155,243 L341,243 C341,243 341.070601,228.834869 341,227.367256 L346.241643,227.367256 L346.241643,229.583135 C346.231013,229.599708 346.2172,229.617577 346.207195,229.633643 L346.241643,229.633643 L346.241643,229.583135 C346.938046,228.519474 348.18175,227 350.965545,227 C354.414479,227 357,229.234312 357,234.036088 Z M336.018278,220 C334.193533,220 333,221.295404 333,222.998904 C333,224.665282 334.159003,226 335.947481,226 L335.983111,226 C337.843195,226 339,224.665533 339,222.998904 C338.964949,221.295404 337.843195,220 336.018278,220 Z M334,243 L339,243 L339,227 L334,227 L334,243 Z" id="LinkedIn" fill="#FFFFFF" fill-rule="nonzero"></path>
        </g>
    </g>
</svg>