
<svg width="50px" height="50px" viewBox="0 0 50 50" version="1.1" xmlns="http://www.w3.org/2000/svg" xmlns:xlink="http://www.w3.org/1999/xlink">
    <g id="style" stroke="none" stroke-width="1" fill="none" fill-rule="evenodd">
        <g id="Artboard" transform="translate(-320.000000, -332.000000)">
            <circle id="Oval" stroke="#000000" cx="345" cy="357" r="24"></circle>
            <path d="M357,358.036088 L357,367 L351.759608,367 L351.759608,358.636437 C351.759608,356.535441 351.001641,355.101594 349.104793,355.101594 C347.65679,355.101594 346.795082,356.067902 346.415985,357.002642 C346.277739,357.336808 346.242155,357.801924 346.242155,358.269688 L346.242155,367 L341,367 C341,367 341.070601,352.834869 341,351.367256 L346.241643,351.367256 L346.241643,353.583135 C346.231013,353.599708 346.2172,353.617577 346.207195,353.633643 L346.241643,353.633643 L346.241643,353.583135 C346.938046,352.519474 348.18175,351 350.965545,351 C354.414479,351 357,353.234312 357,358.036088 Z M336.018278,344 C334.193533,344 333,345.295404 333,346.998904 C333,348.665282 334.159003,350 335.947481,350 L335.983111,350 C337.843195,350 339,348.665533 339,346.998904 C338.964949,345.295404 337.843195,344 336.018278,344 Z M334,367 L339,367 L339,351 L334,351 L334,367 Z" id="LinkedIn" fill="#000000" fill-rule="nonzero"></path>
        </g>
    </g>
</svg>