
<svg width="529px" height="591px" viewBox="0 0 529 591" version="1.1" xmlns="http://www.w3.org/2000/svg" xmlns:xlink="http://www.w3.org/1999/xlink">
    <g id="Landing-Page" stroke="none" stroke-width="1" fill="none" fill-rule="evenodd">
        <g id="Right" transform="translate(-834.000000, -229.000000)">
            <g id="hanger" transform="translate(957.000000, 346.000000)" stroke="#FFFFFF" stroke-width="2">
                <path d="M47,4.52101858 C50.8635354,-1.50700619 54.3630019,-1.50700619 57.4983994,4.52101858 C58.8258666,7.0731687 58.8041132,8.92958662 58.9501163,10.7295024 C59.321389,15.3065254 57.4983994,17.805309 57.4983994,17.805309 C57.4983994,17.805309 55.3259798,20.6449177 53.2943322,21.723478 C50.5497801,23.1805047 47.7036444,22.9920388 47.446863,22.9920388" id="Path-39"></path>
                <path d="M47,23 L47,30.1114609 C21.6556686,40.027049 7.37559456,46.4636406 4.15977777,49.4212358 C0.943960992,52.378831 -0.407307105,55.2384191 0.105973485,58 L40.5351628,58 L47,58" id="Path-40" stroke-linecap="round" stroke-linejoin="round"></path>
                <path d="M94,23 L94,30.1114609 C68.6556686,40.027049 54.3755946,46.4636406 51.1597778,49.4212358 C47.943961,52.378831 46.5926929,55.2384191 47.1059735,58 L87.5351628,58 L94,58" id="Path-40" stroke-linecap="round" stroke-linejoin="round" transform="translate(70.500000, 40.500000) scale(-1, 1) translate(-70.500000, -40.500000) "></path>
            </g>
            <g id="hanger" transform="translate(1053.000000, 346.000000)" stroke="#FFFFFF" stroke-width="3">
                <path d="M47,4.52101858 C50.8635354,-1.50700619 54.3630019,-1.50700619 57.4983994,4.52101858 C58.8258666,7.0731687 58.8041132,8.92958662 58.9501163,10.7295024 C59.321389,15.3065254 57.4983994,17.805309 57.4983994,17.805309 C57.4983994,17.805309 55.3259798,20.6449177 53.2943322,21.723478 C50.5497801,23.1805047 47.7036444,22.9920388 47.446863,22.9920388" id="Path-39"></path>
                <path d="M47,23 L47,30.1114609 C21.6556686,40.027049 7.37559456,46.4636406 4.15977777,49.4212358 C0.943960992,52.378831 -0.407307105,55.2384191 0.105973485,58 L40.5351628,58 L47,58" id="Path-40" stroke-linecap="round" stroke-linejoin="round"></path>
                <path d="M94,23 L94,30.1114609 C68.6556686,40.027049 54.3755946,46.4636406 51.1597778,49.4212358 C47.943961,52.378831 46.5926929,55.2384191 47.1059735,58 L87.5351628,58 L94,58" id="Path-40" stroke-linecap="round" stroke-linejoin="round" transform="translate(70.500000, 40.500000) scale(-1, 1) translate(-70.500000, -40.500000) "></path>
            </g>
            <g id="hanger" transform="translate(1135.000000, 346.000000)" stroke="#FFFFFF" stroke-width="2">
                <path d="M47,4.52101858 C51.1854967,-1.50700619 54.9765853,-1.50700619 58.373266,4.52101858 C59.8113555,7.0731687 59.7877893,8.92958662 59.9459593,10.7295024 C60.3481714,15.3065254 58.373266,17.805309 58.373266,17.805309 C58.373266,17.805309 56.0198115,20.6449177 53.8188599,21.723478 C50.8455951,23.1805047 47.7622814,22.9920388 47.4841016,22.9920388" id="Path-39"></path>
                <path d="M48,23 L48,30.1114609 C22.1164275,40.027049 7.5325221,46.4636406 4.24828368,49.4212358 C0.964045268,52.378831 -0.415973213,55.2384191 0.10822824,58 L41.397613,58 L48,58" id="Path-40" stroke-linecap="round" stroke-linejoin="round"></path>
                <path d="M95,23 L95,30.1114609 C69.1164275,40.027049 54.5325221,46.4636406 51.2482837,49.4212358 C47.9640453,52.378831 46.5840268,55.2384191 47.1082282,58 L88.397613,58 L95,58" id="Path-40" stroke-linecap="round" stroke-linejoin="round" transform="translate(71.000000, 40.500000) scale(-1, 1) translate(-71.000000, -40.500000) "></path>
            </g>
            <g id="hanger" transform="translate(1109.000000, 346.000000)" stroke="#FFFFFF" stroke-width="2">
                <path d="M47,4.52101858 C50.8635354,-1.50700619 54.3630019,-1.50700619 57.4983994,4.52101858 C58.8258666,7.0731687 58.8041132,8.92958662 58.9501163,10.7295024 C59.321389,15.3065254 57.4983994,17.805309 57.4983994,17.805309 C57.4983994,17.805309 55.3259798,20.6449177 53.2943322,21.723478 C50.5497801,23.1805047 47.7036444,22.9920388 47.446863,22.9920388" id="Path-39"></path>
                <path d="M47,23 L47,30.1114609 C21.6556686,40.027049 7.37559456,46.4636406 4.15977777,49.4212358 C0.943960992,52.378831 -0.407307105,55.2384191 0.105973485,58 L40.5351628,58 L47,58" id="Path-40" stroke-linecap="round" stroke-linejoin="round"></path>
                <path d="M94,23 L94,30.1114609 C68.6556686,40.027049 54.3755946,46.4636406 51.1597778,49.4212358 C47.943961,52.378831 46.5926929,55.2384191 47.1059735,58 L87.5351628,58 L94,58" id="Path-40" stroke-linecap="round" stroke-linejoin="round" transform="translate(70.500000, 40.500000) scale(-1, 1) translate(-70.500000, -40.500000) "></path>
            </g>
            <g id="dress" transform="translate(1038.000000, 390.000000)" stroke="#FFFFFF" stroke-linecap="round" stroke-linejoin="round" stroke-width="2">
                <path d="M23,2.46818938 C21.3358751,3.00414199 20.3673903,3.80926086 20.0945457,4.88354598 C18.2258844,12.24112 18.7499248,19.2563625 21.6666667,25.9292737 C25.2222222,34.0636603 27,39.7539024 27,43" id="Path-24"></path>
                <path d="M28.5068399,1 C22.6378329,13.2760641 24.135553,23.9427308 33,33" id="Path-28"></path>
                <path d="M27,43 C27.3506239,48.0569497 27.8663337,51.890283 28.5471295,54.5 C29.2279252,57.109717 30.7122154,60.9430503 33,66" id="Path-31"></path>
                <path d="M32.5,65 L35,72" id="Path-33"></path>
                <path d="M35,72 C37.0419744,72.8331183 38.566048,74.3995892 39.5722208,76.6994129 C40.5783937,78.9992365 41.3876534,82.7660989 42,88" id="Path-32"></path>
                <path d="M33,33 C41.7497286,34.8124416 48.4937803,37.1891925 53.232155,40.1302527 C57.9705298,43.0713129 60.8931448,46.694562 62,51" id="Path-26"></path>
                <path d="M42,88 C32.4576094,105.40866 25.4576094,122.154352 21,138.237078 C19.4735995,143.744218 18.6021705,151.518841 17.0858744,157.728434 C16.26086,161.107065 14.2349901,176.322753 13.4603524,179.715286 C12.8948648,182.191843 9.6664172,196.468727 9.10407532,199.147353 C7.42893929,207.126595 4.16963965,226.049726 1.68298447,240.03878 C0.700050089,245.568426 0.139055266,252.222166 0,260" id="Path-27"></path>
                <path d="" id="Path-25"></path>
                <g id="Group" transform="translate(93.500000, 130.500000) scale(-1, 1) translate(-93.500000, -130.500000) translate(62.000000, 0.000000)">
                    <path d="M25.7016314,2.46818938 C23.5665817,2.84224668 22.404373,3.3021312 22.2150054,3.84784295 C19.3622705,12.0687366 18.7313455,18.4901703 22.2150054,25.8714512 C26.0455389,33.987698 27.9608057,39.6652508 27.9608057,42.9041096" id="Path-24"></path>
                    <path d="M29.0931147,0.595890411 C23.4171671,12.9402716 24.8656201,23.666299 33.4384735,32.7739726" id="Path-28"></path>
                    <path d="M27.9608057,42.7968493 C28.2334111,47.7754901 28.6343685,51.5494627 29.1636779,54.1187671 C29.6929874,56.6880716 30.8470029,60.4620442 32.6257245,65.4406849" id="Path-31"></path>
                    <path d="M32.6257245,65.4406849 L34.6139869,71.6916123" id="Path-33"></path>
                    <path d="M34.2631579,71.3403326 C36.6490026,72.214975 38.4297316,73.8595217 39.6053448,76.2739726 C40.7809581,78.6884236 41.7264979,82.643033 42.4419642,88.1378011" id="Path-32"></path>
                    <path d="M32.6052632,32.1780822 C41.769631,34.0426079 48.8332752,36.4876594 53.7961959,39.5132368 C58.7591166,42.5388142 61.8202309,46.2661845 62.9795387,50.6953478" id="Path-26"></path>
                    <path d="M41.9330298,88.1917808 C32.6417547,105.561619 25.8259653,122.269969 21.4856614,138.31683 C19.9994293,143.811689 19.1509327,151.568974 17.6745391,157.76472 C16.8712356,161.135816 14.898678,176.317573 14.1444256,179.70254 C13.5938192,182.173575 10.4503308,196.418621 9.90278734,199.091274 C8.27173384,207.052722 5.09820524,225.933654 2.67698836,239.891513 C1.71992067,245.408827 1.17368887,252.04773 1.03829295,259.808219" id="Path-27"></path>
                    <path d="" id="Path-25"></path>
                </g>
                <path d="M0,260 C28.0007891,267.266619 49.0316287,270.932977 63.092519,270.999074 C77.1534093,271.06517 97.455903,267.59311 124,260.582891" id="Path-29"></path>
                <path d="M42,83 C51.2347132,84.3333333 58.1521391,85 62.7522776,85 C67.3524161,85 74.1016569,84.3333333 83,83" id="Path-30"></path>
                <path d="M42,88 C50.9454129,89.3333333 57.6961798,90 62.2523006,90 C66.8084213,90 73.3909878,89.3333333 82,88" id="Path-34"></path>
                <circle id="Oval" fill="#D8D8D8" cx="62" cy="57" r="1"></circle>
                <circle id="Oval" fill="#D8D8D8" cx="62" cy="61" r="1"></circle>
                <circle id="Oval" fill="#D8D8D8" cx="62" cy="66" r="1"></circle>
                <circle id="Oval" fill="#D8D8D8" cx="62" cy="70" r="1"></circle>
                <circle id="Oval" fill="#D8D8D8" cx="62" cy="70" r="1"></circle>
                <path d="M33,123 C25.9106369,153.779596 21.0231866,176.946263 18.3376492,192.5 C15.6521118,208.053737 12.5395621,231.220404 9,262" id="Path-45"></path>
                <path d="M45,116 C39.1613306,140.712335 34.8637087,162.340616 32.1071346,180.884842 C29.3505604,199.429069 26.3148489,227.134121 23,264" id="Path-46"></path>
                <path d="M51,127 C46.7933455,152.892497 43.6496614,174.467588 41.5689476,191.725273 C39.4882338,208.982958 36.9652513,234.407867 34,268" id="Path-47"></path>
                <path d="M58,136 C57.3064303,157.883015 56.0936156,177.051806 54.3615558,193.506374 C52.629496,209.960942 49.1756441,235.125484 44,269" id="Path-48"></path>
                <path d="M65.2386219,121 C68.7828616,144.072068 70.3484249,165.17497 69.9353119,184.308708 C69.522199,203.442446 66.877095,232.339544 62,271" id="Path-49"></path>
                <path d="M77,131 C82.6313665,161.571811 86.014372,184.571811 87.1490166,200 C88.2836611,215.428189 88.2836611,238.428189 87.1490166,269" id="Path-54"></path>
                <path d="M86,123 C93.5445169,154.959441 97.9966656,179.80087 99.3564462,197.524288 C100.716227,215.247706 99.9211721,238.072943 96.9712823,266" id="Path-55"></path>
                <path d="M93,120 C99.2138361,147.7165 103.526214,170.003621 105.937133,186.861362 C108.348053,203.719103 110.035675,229.098649 111,263" id="Path-56"></path>
            </g>
            <g id="open_closet" transform="translate(838.000000, 233.000000)">
                <polyline id="Path-35" stroke="#FFFFFF" stroke-width="7" stroke-linecap="round" stroke-linejoin="round" points="101 27 0 75.9869036 0.89380531 583 101 525.350395"></polyline>
                <polyline id="Path-35" stroke="#FFFFFF" stroke-width="7" stroke-linecap="round" stroke-linejoin="round" transform="translate(470.500000, 305.000000) scale(-1, 1) translate(-470.500000, -305.000000) " points="521 27 420 75.9869036 420.893805 583 521 525.350395"></polyline>
                <path d="M101,126 L420,127" id="Path-36" stroke="#FFFFFF" stroke-width="4"></path>
                <path d="M101,143.5 L420,143.5" id="Path-37" stroke="#FFFFFF" stroke-width="4"></path>
                <path d="" id="Path-38" stroke="#979797" stroke-width="3"></path>
                <polygon id="Path-50" stroke="#FFFFFF" stroke-width="7" stroke-linecap="round" stroke-linejoin="round" points="101 27 101 525 420 525 420 27"></polygon>
                <polyline id="Path-53" stroke="#FFFFFF" stroke-width="5" stroke-linecap="round" stroke-linejoin="round" points="130 525 130 546 158 546 158 525"></polyline>
                <polyline id="Path-53" stroke="#FFFFFF" stroke-width="5" stroke-linecap="round" stroke-linejoin="round" points="368 527 368 548 396 548 396 527"></polyline>
                <path d="" id="Path-41" stroke="#979797" stroke-width="5"></path>
                <polyline id="Path-43" stroke="#FFFFFF" stroke-width="7" stroke-linecap="round" stroke-linejoin="round" points="462.321903 0.606411813 147.768843 1.10641181 101 27"></polyline>
                <polyline id="Path-44" stroke="#FFFFFF" stroke-width="7" stroke-linecap="round" stroke-linejoin="round" points="420 27 462.321903 0.106411813 462.321903 47.0436052"></polyline>
            </g>
        </g>
    </g>
</svg>