
<svg width="171px" height="80px" viewBox="0 0 171 80" version="1.1" xmlns="http://www.w3.org/2000/svg" xmlns:xlink="http://www.w3.org/1999/xlink">
    <g id="Rietvelt" stroke="none" stroke-width="1" fill="none" fill-rule="evenodd">
        <g id="Artboard" transform="translate(-128.000000, -130.000000)">
            <polygon id="Path" stroke="#FFFFFF" stroke-width="2" stroke-linecap="round" stroke-linejoin="round" points="135.062378 131.125345 135.062378 208.420013 209 208.420013 209 131.125345"></polygon>
            <polygon id="Path-2" stroke="#FFFFFF" stroke-width="2" fill-opacity="0.3" fill="#D8D8D8" stroke-linecap="round" stroke-linejoin="round" points="129.409064 169.772679 172.031189 169.772679 172.031189 193.5 129.409064 193.5"></polygon>
            <path d="M156.614474,154.40978 L156.614474,169.772679" id="Path-3" stroke="#FFFFFF" stroke-width="2" stroke-linecap="round" stroke-linejoin="round"></path>
            <path d="M156.614474,154.40978 L209,154.40978" id="Path-4" stroke="#FFFFFF" stroke-width="2" stroke-linecap="round" stroke-linejoin="round"></path>
            <path d="M172.031189,181.63634 L209,181.63634" id="Path-5" stroke="#FFFFFF" stroke-width="2" stroke-linecap="round" stroke-linejoin="round"></path>
            <path d="M145.583748,193.5 L145.583748,208.420013" id="Path-6" stroke="#FFFFFF" stroke-width="2" stroke-linecap="round" stroke-linejoin="round"></path>
            <path d="M150.720127,193.5 L150.720127,208.420013" id="Path-7" stroke="#FFFFFF" stroke-width="2" stroke-linecap="round" stroke-linejoin="round"></path>
            <path d="M165.329225,193.5 L165.329225,208.420013" id="Path-8" stroke="#FFFFFF" stroke-width="2" stroke-linecap="round" stroke-linejoin="round"></path>
            <path d="M169.857458,193.5 L169.857458,208.420013" id="Path-9" stroke="#FFFFFF" stroke-width="2" stroke-linecap="round" stroke-linejoin="round"></path>
            <polyline id="Path-10" stroke="#FFFFFF" stroke-width="2" stroke-linecap="round" stroke-linejoin="round" points="234.084951 131.125345 234.084951 208.420013 297.947857 208.420013 297.947857 131.125345"></polyline>
            <path d="M297.947857,131.125345 L234.084951,131.125345" id="Path-11" stroke="#FFFFFF" stroke-width="2" stroke-linecap="round" stroke-linejoin="round"></path>
            <polyline id="Path-12" stroke="#FFFFFF" stroke-width="2" stroke-linecap="round" stroke-linejoin="round" points="234.084951 131.125345 234.084951 198.586155 241.26185 198.586155 241.26185 131.125345"></polyline>
            <path d="M241.26185,154.40978 L291.598774,154.40978" id="Path-13" stroke="#FFFFFF" stroke-width="2" stroke-linecap="round" stroke-linejoin="round"></path>
            <path d="M291.598774,154.40978 L297.947857,154.40978" id="Path-14" stroke="#FFFFFF" stroke-width="2" stroke-linecap="round" stroke-linejoin="round"></path>
            <path d="M241.26185,181.63634 L297.947857,181.63634" id="Path-15" stroke="#FFFFFF" stroke-width="2" stroke-linecap="round" stroke-linejoin="round"></path>
            <polygon id="Path-16" stroke="#FFFFFF" stroke-width="2" stroke-linecap="round" stroke-linejoin="round" points="266.016404 131.125345 266.016404 154.40978 269.604853 154.40978 269.604853 131.125345"></polygon>
            <polygon id="Path-17" stroke="#FFFFFF" stroke-width="2" stroke-linecap="round" stroke-linejoin="round" points="241.26185 142.767563 297.947857 142.767563 297.947857 145.767563 241.26185 145.767563"></polygon>
            <polygon id="Path-18" stroke="#FFFFFF" stroke-width="2" fill-opacity="0.3" fill="#FFFFFF" stroke-linecap="round" stroke-linejoin="round" points="234.084951 198.586155 297.947857 198.586155 297.947857 208.420013 234.084951 208.420013"></polygon>
            <circle id="Oval" stroke="#FFFFFF" fill-opacity="0.3" fill="#FFFFFF" cx="201.5" cy="145.5" r="2.5"></circle>
            <polygon id="Path-19" fill="#FFFFFF" opacity="0.3" points="241.26185 154.40978 297.947857 154.40978 297.947857 181.63634 241.26185 181.63634"></polygon>
            <polyline id="Path-20" stroke="#FFFFFF" stroke-width="2" points="214.027594 154.40978 214.027594 208.420013 217.12285 208.420013 217.12285 154.40978"></polyline>
            <path d="M217.472406,154.09022 L213.472406,154.09022" id="Path-21" stroke="#FFFFFF" stroke-width="2"></path>
        </g>
    </g>
</svg>