
<svg width="289px" height="128px" viewBox="0 0 289 128" version="1.1" xmlns="http://www.w3.org/2000/svg" xmlns:xlink="http://www.w3.org/1999/xlink">
    <g id="Stela" stroke="none" stroke-width="1" fill="none" fill-rule="evenodd">
        <g id="Artboard" transform="translate(-55.000000, -136.000000)">
            <g id="Group" transform="translate(218.000000, 138.000000)">
                <rect id="Rectangle" stroke="#FFFFFF" stroke-width="3" stroke-linejoin="round" x="0" y="0" width="124" height="124"></rect>
                <text id="T" font-family="AmericanTypewriter, American Typewriter" font-size="45" font-weight="normal" letter-spacing="-0.0671641791" fill="#FFFFFF">
                    <tspan x="15" y="45">T</tspan>
                </text>
                <path d="M51.2840558,17.5 L108,17.5" id="Path-2" stroke="#FFFFFF" stroke-width="2" fill="#FFFFFF" stroke-linecap="round"></path>
                <path d="M51.2840558,29.5 L108,29.5" id="Path-3" stroke="#FFFFFF" stroke-width="2" fill="#FFFFFF" stroke-linecap="round"></path>
                <path d="M51.2828895,40.5 L109,40.5" id="Path-2" stroke="#FFFFFF" stroke-width="2" fill="#FFFFFF" stroke-linecap="round"></path>
                <path d="M16.0158081,51.5 L109,51.5" id="Path-3" stroke="#FFFFFF" stroke-width="2" fill="#FFFFFF" stroke-linecap="round"></path>
                <path d="M15,93.5 L109,93.5" id="Path-4" stroke="#FFFFFF" stroke-width="2" stroke-linecap="round"></path>
                <path d="M15,83.5 L109,83.5" id="Path-4" stroke="#FFFFFF" stroke-width="2" stroke-linecap="round"></path>
                <path d="M15,60.5 L109,60.5" id="Path-4" stroke="#FFFFFF" stroke-width="2" stroke-linecap="round"></path>
                <path d="M15.6327166,72.5 L109.367283,72.5" id="Path-5" stroke="#FFFFFF" stroke-width="2" stroke-linecap="round"></path>
                <path d="M15,105.5 L109.513255,105.5" id="Path-4" stroke="#FFFFFF" stroke-width="2" stroke-linecap="round"></path>
            </g>
            <g id="Group" transform="translate(57.000000, 138.000000)">
                <rect id="Rectangle" stroke="#FFFFFF" stroke-width="3" stroke-linejoin="round" x="0" y="0" width="124" height="124"></rect>
                <text id="T" font-family="AmericanTypewriter, American Typewriter" font-size="45" font-weight="normal" letter-spacing="-0.0671641791" fill="#FFFFFF">
                    <tspan x="15" y="45">T</tspan>
                </text>
                <path d="M51.2840558,17.5 L108,17.5" id="Path-2" stroke="#FFFFFF" stroke-width="2" fill="#FFFFFF" stroke-linecap="round"></path>
                <path d="M51.2840558,29.5 L108,29.5" id="Path-3" stroke="#FFFFFF" stroke-width="2" fill="#FFFFFF" stroke-linecap="round"></path>
                <path d="M51.2828895,40.5 L109,40.5" id="Path-2" stroke="#FFFFFF" stroke-width="2" fill="#FFFFFF" stroke-linecap="round"></path>
                <path d="M15,51.5 L109,51.5" id="Path-3" stroke="#FFFFFF" stroke-width="2" fill="#FFFFFF" stroke-linecap="round"></path>
                <path d="M15,93.5 L109,93.5" id="Path-4" stroke="#FFFFFF" stroke-width="2" stroke-linecap="round"></path>
                <path d="M15,83.5 L109,83.5" id="Path-4" stroke="#FFFFFF" stroke-width="2" stroke-linecap="round"></path>
                <path d="M15,60.5 L109,60.5" id="Path-4" stroke="#FFFFFF" stroke-width="2" stroke-linecap="round"></path>
                <path d="M15.6327166,72.5 L109.367283,72.5" id="Path-5" stroke="#FFFFFF" stroke-width="2" stroke-linecap="round"></path>
                <path d="M15,105.5 L109.513255,105.5" id="Path-4" stroke="#FFFFFF" stroke-width="2" stroke-linecap="round"></path>
            </g>
            <polyline id="Path" stroke="#FFFFFF" stroke-width="1.5" stroke-linecap="round" stroke-linejoin="round" points="194 144 205 162.215467 194 181.077097 205 200.50733 194 216.778142 205 238.928012 194 256"></polyline>
        </g>
    </g>
</svg>