
<svg width="109px" height="108px" viewBox="0 0 109 108" version="1.1" xmlns="http://www.w3.org/2000/svg" xmlns:xlink="http://www.w3.org/1999/xlink">
    <g id="style" stroke="none" stroke-width="1" fill="none" fill-rule="evenodd">
        <g id="Artboard" transform="translate(-157.000000, -123.000000)" stroke="#FFFFFF">
            <path d="M188.56819,221.661963 C203.913149,186.136612 221.306475,160.414279 240.748167,144.494964" id="Path" stroke-width="2" stroke-linecap="round" stroke-linejoin="round"></path>
            <path d="M200,200 C196.117347,192.706149 196.117347,183.723693 200,173.052633 C203.882653,162.381573 208.768713,152.86235 214.658178,144.494964 C221.122076,136.117405 227.942015,130.532473 235.117996,127.740166" id="Path-2" stroke-width="2" stroke-linecap="round" stroke-linejoin="round"></path>
            <path d="M200,200 C204.877011,199.306866 211.949263,194.485688 221.216757,185.536469" id="Path-3" stroke-width="2" stroke-linecap="round" stroke-linejoin="round"></path>
            <path d="M221.216757,185.536469 C231.862005,176.529026 240.18249,169.306897 246.17821,163.870083" id="Path-4" stroke-width="2" stroke-linecap="round" stroke-linejoin="round"></path>
            <path d="M235.117996,127.740166 C248.563397,122.773089 258.111801,123.550235 263.763208,130.071603" id="Path-5" stroke-width="2" stroke-linecap="round" stroke-linejoin="round"></path>
            <path d="M246.17821,163.870083 C261.932063,151.2433 267.793729,139.97714 263.763208,130.071603" id="Path-6" stroke-width="2" stroke-linecap="round" stroke-linejoin="round"></path>
            <path d="" id="Path-7" stroke-width="2" stroke-linecap="round" stroke-linejoin="round"></path>
            <path d="M206.030414,186.822353 L199.5,173.552633" id="Path-8" stroke-width="2" stroke-linecap="round" stroke-linejoin="round"></path>
            <path d="M206.030414,186.822353 L220.128616,186.822353" id="Path-9" stroke-width="2" stroke-linecap="round" stroke-linejoin="round"></path>
            <path d="M213.079515,175.978994 L206.030414,159.232529" id="Path-10" stroke-width="2" stroke-linecap="round" stroke-linejoin="round"></path>
            <path d="M213.079515,175.978994 L231.33242,177.226364" id="Path-11" stroke-width="2" stroke-linecap="round" stroke-linejoin="round"></path>
            <path d="M220.128616,165.647098 L214.658178,144.494964" id="Path-12" stroke-width="2" stroke-linecap="round" stroke-linejoin="round"></path>
            <path d="M220.128616,165.647098 L242.296761,167.605762" id="Path-13" stroke-width="2" stroke-linecap="round" stroke-linejoin="round"></path>
            <path d="M228.198559,156.567579 L226.605763,132.816651" id="Path-14" stroke-width="2" stroke-linecap="round" stroke-linejoin="round"></path>
            <path d="M228.198559,156.567579 L253.457177,157.645574" id="Path-15" stroke-width="2" stroke-linecap="round" stroke-linejoin="round"></path>
            <path d="" id="Path-16" stroke-width="2" stroke-linecap="round" stroke-linejoin="round"></path>
            <path d="M240.748167,144.692115 C248.362005,137.773035 256.033685,132.899531 263.763208,130.071603" id="Path-17" stroke-width="2" stroke-linecap="round" stroke-linejoin="round"></path>
            <path d="M240.827868,144.494964 L242.296761,126.066668" id="Path-18" stroke-width="2" stroke-linecap="round" stroke-linejoin="round"></path>
            <path d="M240.748167,144.494964 L262.659348,144.692115" id="Path-19" stroke-width="2" stroke-linecap="round" stroke-linejoin="round"></path>
            <path d="M158.18584,227.031966 C160.128273,223.451964 162.718909,221.661963 165.957747,221.661963" id="Path-20" stroke-linecap="round" stroke-linejoin="round"></path>
            <path d="M165.957747,221.661963 C170.10259,222.375503 173.491415,224.04217 176.124221,226.661963" id="Path-21" stroke-linecap="round" stroke-linejoin="round"></path>
            <path d="M176.124221,226.661963 C178.428361,229.32863 180.656855,229.32863 182.809705,226.661963" id="Path-22" stroke-linecap="round" stroke-linejoin="round"></path>
            <path d="M182.809705,226.661963 C186.346965,223.995297 190.179662,223.995297 194.307797,226.661963" id="Path-23" stroke-linecap="round" stroke-linejoin="round"></path>
            <path d="M194.307797,226.661963 C199.773175,229.773074 203.680714,230.464432 206.030414,228.736037" id="Path-24" stroke-linecap="round" stroke-linejoin="round"></path>
            <path d="M206.030414,228.661963 C210.397356,222.947677 214.185017,221.315024 217.393397,223.764004" id="Path-25" stroke-linecap="round" stroke-linejoin="round"></path>
            <path d="M188.558751,221.661963 L198.275824,195.607102" id="Path-26"></path>
        </g>
    </g>
</svg>