
<svg width="62px" height="152px" viewBox="0 0 62 152" version="1.1" xmlns="http://www.w3.org/2000/svg" xmlns:xlink="http://www.w3.org/1999/xlink">
    <g id="style" stroke="none" stroke-width="1" fill="none" fill-rule="evenodd">
        <g id="Artboard" transform="translate(-94.000000, -80.000000)" stroke="#FFFFFF">
            <path d="" id="Path" stroke-linecap="round" stroke-linejoin="round"></path>
            <g id="Group" transform="translate(130.235663, 136.433216) rotate(-36.000000) translate(-130.235663, -136.433216) translate(83.735663, 92.933216)" stroke-linecap="round" stroke-linejoin="round">
                <path d="M1.42108547e-14,85.4932329 C17.2209968,61.3868617 29.0125082,46.1565946 35.3745342,39.8024315 C54.5278525,20.6727852 66.641859,18.2874466 70.7490684,18" id="Path-2"></path>
                <path d="M6,82 C19.9459838,61.6578498 30.7793171,47.6858232 38.5,40.08392 C42.2613745,36.3804128 46.4239988,32.0231845 51.662923,28.4338865 C55.3393301,25.915102 61.7850225,22.4371398 71,18" id="Path-3"></path>
                <path d="M0,85.4932329 L6.5,81.5929579" id="Path-4"></path>
                <path d="M17,55 C21.3855923,40.2072888 26.4652034,29.4327456 32.2388333,22.6763702 C38.0124631,15.9199949 48.5995187,8.36120479 64,0" id="Path-5" stroke-width="2"></path>
                <path d="M17.0863094,54.8950996 C15.8914374,53.2013308 15.1644539,51.8854808 14.9053588,50.9475498 C14.6462638,50.0096188 14.6462638,48.6937689 14.9053588,47 C13.5172354,51.1205483 12.8875859,54.0797177 13.0164103,55.8775083 C13.1452347,57.6752988 14.1059891,59.3368162 15.8986735,60.8620604" id="Path-6" stroke-width="2"></path>
                <path d="M15.6885734,60.8620604 C14.3893868,61.0873398 13.4931956,61.1640138 13,61.0920826 C12.5707604,61.0294791 12.1856996,60.8162356 11.8448179,60.4523521 C11.8109573,60.4162067 11.7611473,60.3586444 11.6953878,60.2796651" id="Path-7" stroke-width="2"></path>
                <path d="M11.8448179,60.4523521 C12.2771156,61.5804121 12.7301401,62.3027416 13.2038913,62.6193405 C13.6776426,62.9359394 14.6002307,63.1329056 15.9716556,63.210239" id="Path-8" stroke-width="2"></path>
                <path d="M64,3.55271368e-15 L58.0514339,11.1979502" id="Path-9" stroke-width="2"></path>
                <path d="M56.9765417,12.8985644 C61.1369757,8.5551055 65.2458118,5.61010692 69.3030501,4.06356865 C75.3889075,1.74376124 78.0052818,1.28876696 83.2109591,2.89852796 C88.4166363,4.50828897 89.2048696,7.24950086 91.3073089,10.8679854 C93.4097482,14.48647 93.090034,15.9468724 92.6635965,19.1673555 C92.237159,22.3878386 93.0253109,22.2147871 89.3956025,25.3053132 C85.7658942,28.3958393 85.0351636,29.2166882 79.6432815,31.1394713 C76.0486935,32.4213267 72.7244432,33.4775496 69.6705306,34.30814" id="Path-10" stroke-width="2"></path>
                <path d="M58.2633853,10.5988285 L57.1724564,12.9290813" id="Path-11"></path>
                <path d="" id="Path-13" stroke-width="2"></path>
                <path d="" id="Path-14" stroke-width="2"></path>
                <path d="M50.4876389,42.5544703 C51.9902695,44.1549677 53.2866559,45.1036052 54.3767982,45.4003828 C55.4669405,45.6971604 57.170554,45.5652354 59.4876389,45.0046078" id="Path-16" stroke-width="2"></path>
                <path d="M59.4876389,45.0060582 C56.099384,48.5415362 54.0715603,50.5931229 53.4041678,51.1608184 C52.403079,52.0123617 52.9385756,51.6668031 50.1524787,52.9467053 C47.3663819,54.2266074 46.9346801,54.8032225 44.9371522,55.6906193 C43.6054669,56.2822172 42.1264162,56.7969424 40.5,57.2347949 L40.3022381,57.2609512 L35.3745342,57.9126959 L32.1978561,57.9126959" id="Path-17" stroke-width="2"></path>
                <path d="M18.2728774,65.802001 C19.7807352,66.2164846 20.9704683,66.4701938 21.8420766,66.5631285 C22.713685,66.6560633 23.903418,66.6560633 25.4112758,66.5631285" id="Path-18" stroke-width="2"></path>
                <path d="M25.1404876,66.4899453 C24.0263763,65.9155529 23.2198792,65.4564409 22.7209963,65.1126092 C22.2221134,64.7687775 21.6963124,64.3096655 21.1435934,63.7352731" id="Path-19" stroke-width="2"></path>
                <path d="M21.1435934,63.7352731 C23.3264238,64.4904172 24.9523881,64.9495292 26.0214863,65.1126092 C27.0905846,65.2756892 28.4744057,65.2756892 30.1729498,65.1126092" id="Path-20" stroke-width="2"></path>
                <path d="M29.8970536,65.1126092 C28.0662075,64.6281535 26.7324286,64.1690414 25.8957169,63.7352731 C25.0590052,63.3015049 24.1411131,62.593305 23.1420405,61.6106736" id="Path-21" stroke-width="2"></path>
                <path d="M23.5318338,61.8312955 C25.8599469,62.6183897 27.5762425,63.0780375 28.6807208,63.210239 C29.7851991,63.3424405 31.3161853,63.271479 33.2736794,62.9973544" id="Path-22" stroke-width="2"></path>
                <path d="M32.9936471,62.8634658 C29.6354038,60.875815 27.9081805,59.5702742 27.8119773,58.9468435 C27.7157741,58.3234127 29.1777337,57.9786969 32.1978561,57.9126959" id="Path-23" stroke-width="2"></path>
                <path d="M49.8901769,42.3705236 L69.6705306,34.30814" id="Path-12" stroke-width="2"></path>
            </g>
            <path d="M101.428801,195.102315 C105.367997,198.367438 109.322996,200 113.293797,200 C119.25,200 128.263643,198.661534 130.117649,195.102315" id="Path-15" stroke-linecap="round" stroke-linejoin="round"></path>
            <path d="M101.428801,195.102315 C102.440809,192.729502 105.122345,191.543095 109.473407,191.543095 C113.824469,191.543095 116.460544,191.543095 117.381633,191.543095" id="Path-24" stroke-linecap="round" stroke-linejoin="round"></path>
            <path d="M130.617649,195.102315 C128.831738,192.729502 125.45117,191.543095 120.475945,191.543095" id="Path-25" stroke-linecap="round" stroke-linejoin="round"></path>
            <path d="M101.428801,195.102315 L101.428801,198.743067 C105.859378,202.391687 110.640852,203.890522 115.773225,203.239571" id="Path-26" stroke-linecap="round" stroke-linejoin="round"></path>
            <path d="M115.773225,203.387401 C123.357068,202.634957 128.138543,201.254109 130.117649,199.244858" id="Path-27" stroke-linecap="round" stroke-linejoin="round"></path>
            <path d="M129.908237,200 L130.617649,195.102315" id="Path-28" stroke-linecap="round" stroke-linejoin="round"></path>
            <path d="M101.428801,199.244858 C104.838113,201.312849 105.97455,203.75028 104.838113,206.557149" id="Path-29" stroke-linecap="round" stroke-linejoin="round"></path>
            <path d="M129.908237,200 C126.301943,201.52569 124.848129,203.711406 125.546797,206.557149" id="Path-30" stroke-linecap="round" stroke-linejoin="round"></path>
            <path d="M104.838113,206.557149 C98.6071254,206.864502 95.1613904,207.798187 94.5009079,209.358205" id="Path-31" stroke-linecap="round" stroke-linejoin="round"></path>
            <path d="M125.546797,206.557149 C130.303505,206.865955 133.212198,207.79964 134.272877,209.358205" id="Path-32" stroke-linecap="round" stroke-linejoin="round"></path>
            <path d="M94.5009079,209.358205 L94.5009079,226.413585 C103.328914,226.834657 109.957575,227.045194 114.386893,227.045194 C118.81621,227.045194 125.444872,226.834657 134.272877,226.413585 L134.272877,209.358205" id="Path-33" stroke-linecap="round" stroke-linejoin="round"></path>
            <path d="M94.5009079,226.413585 L94.5009079,229.909785 C103.333588,230.331105 109.962249,230.541764 114.386893,230.541764 C118.811536,230.541764 125.440198,230.331105 134.272877,229.909785 L134.272877,226.413585" id="Path-34" stroke-linecap="round" stroke-linejoin="round"></path>
            <path d="M98.3289099,210.98893 L98.3289099,223.065009 C105.431723,223.492352 110.813179,223.706023 114.47328,223.706023 C118.13338,223.706023 123.514836,223.492352 130.617649,223.065009 L130.617649,210.98893 C123.613007,211.481895 118.23155,211.728378 114.47328,211.728378 C110.715009,211.728378 105.333552,211.481895 98.3289099,210.98893 Z" id="Path-35" stroke-width="0.5" fill-opacity="0.398109703" fill="#FFFFFF"></path>
        </g>
    </g>
</svg>