
<svg width="139px" height="134px" viewBox="0 0 139 134" version="1.1" xmlns="http://www.w3.org/2000/svg" xmlns:xlink="http://www.w3.org/1999/xlink">
    <g id="Teapot" stroke="none" stroke-width="1" fill="none" fill-rule="evenodd">
        <g id="Artboard" transform="translate(-129.000000, -119.000000)" stroke="#FFFFFF">
            <path d="M130.5,160.230469 L156.976058,190.628906" id="Path" stroke-width="2" stroke-linecap="round" stroke-linejoin="round"></path>
            <path d="M130.5,160.230469 L149.071555,147.5" id="Path-2" stroke-width="2" stroke-linecap="round" stroke-linejoin="round"></path>
            <path d="M156.710449,190.628906 L130.111816,227.5" id="Path-3" stroke-width="2" stroke-linecap="round" stroke-linejoin="round"></path>
            <path d="M130.111816,227.5 L159,252" id="Path-4" stroke-width="2" stroke-linecap="round" stroke-linejoin="round"></path>
            <path d="M159,252 L200.460937,252" id="Path-5" stroke-width="2" stroke-linecap="round" stroke-linejoin="round"></path>
            <path d="M149.5,147.5 L162.5,123.636719" id="Path-6" stroke-width="2" stroke-linecap="round" stroke-linejoin="round"></path>
            <path d="M162.5,123.636719 L193.204157,120" id="Path-7" stroke-width="2" stroke-linecap="round" stroke-linejoin="round"></path>
            <g id="Group" transform="translate(225.500000, 186.000000) scale(-1, 1) translate(-225.500000, -186.000000) translate(193.500000, 119.500000)" stroke-linecap="round" stroke-linejoin="round" stroke-width="2">
                <path d="M0.5,40.5 L26.9760585,70.8984375" id="Path"></path>
                <path d="M0.5,40.5 L19.0715554,28.265625" id="Path-2"></path>
                <path d="M27.7104492,71.5 L1.11181641,108.371094" id="Path-3"></path>
                <path d="M1.11181641,108.371094 L26,132.5" id="Path-4"></path>
                <path d="M26.5,132.5 L62.5,132.5" id="Path-5"></path>
                <path d="M19.0715554,28.265625 L32.5,4.5" id="Path-6"></path>
                <path d="M32.5,4.5 L63.5,0.5" id="Path-7"></path>
            </g>
            <polyline id="Path-9" points="162.5 124 193.5 127.632448 225.5 124"></polyline>
            <polyline id="Path-8" points="149.5 148 193.5 153.865234 238.428445 147.5"></polyline>
            <polyline id="Path-10" points="130.5 160 162.5 166.418437 193.964222 168.251972 225.5 166.418437 256.388184 160.496094"></polyline>
            <path d="M157,191 L230.523942,190.628906" id="Path-11" stroke-width="2"></path>
            <polyline id="Path-12" points="130.5 227.5 162.5 230.685159 193.5 230.685159 225.5 230.685159 256.388184 228"></polyline>
            <path d="M162.5,166.418437 L172.799909,150.682617" id="Path-14"></path>
            <path d="M225,166.418437 L219.42965,150.682617" id="Path-16"></path>
            <path d="M162.5,166.418437 L175.612227,190.628906" id="Path-17"></path>
            <path d="M225.5,166.418437 L213,190.628906" id="Path-18"></path>
            <path d="M172.799909,150.682617 L178,125.816224" id="Path-13"></path>
            <path d="M219.42965,150.682617 L213,125.816224" id="Path-15"></path>
            <path d="M175.399955,190.814453 L162.5,230.685159" id="Path-19"></path>
            <path d="M213,191 L225,230.685159" id="Path-20"></path>
            <path d="M162.5,230.685159 L175.612227,252" id="Path-21"></path>
            <path d="M225,230.685159 L214.5,252" id="Path-22"></path>
            <polyline id="Path-23" points="193.761971 127.632448 193.964222 155.93285 193.444092 252.632448"></polyline>
            <polyline id="Path-24" stroke-linecap="round" stroke-linejoin="round" points="247.231985 170.706165 260.813375 178.523672 267.038943 190.398438 260.813375 200 241.038943 205.977714"></polyline>
            <polyline id="Path-25" stroke-linecap="round" stroke-linejoin="round" points="246.979798 170.95829 246.979798 170.595113 259.317058 181.066794 263.038943 190.398438 260.72554 196.812205 241.038943 205.977714"></polyline>
            <path d="M259.5,180.5 L260.899823,178.523672" id="Path-26" stroke-linecap="round" stroke-linejoin="round"></path>
            <path d="M263.038943,190.628906 L267.038943,190.398438" id="Path-27" stroke-linecap="round" stroke-linejoin="round"></path>
            <path d="M260.899823,196.5 L260.899823,200" id="Path-28" stroke-linecap="round" stroke-linejoin="round"></path>
        </g>
    </g>
</svg>